<?xml version="1.0" standalone="no"?>
<svg xmlns:xlink="http://www.w3.org/1999/xlink" id="wave" style="transform:rotate(0deg); transition: 0.3s" viewBox="0 0 1440 490" version="1.1" xmlns="http://www.w3.org/2000/svg"><defs><linearGradient id="sw-gradient-0" x1="0" x2="0" y1="1" y2="0"><stop stop-color="rgba(39, 39, 39, 1)" offset="0%"/><stop stop-color="rgba(65, 65, 65, 1)" offset="100%"/></linearGradient></defs><path style="transform:translate(0, 0px); opacity:1" fill="url(#sw-gradient-0)" d="M0,196L60,171.5C120,147,240,98,360,89.8C480,82,600,114,720,171.5C840,229,960,310,1080,294C1200,278,1320,163,1440,130.7C1560,98,1680,147,1800,204.2C1920,261,2040,327,2160,359.3C2280,392,2400,392,2520,326.7C2640,261,2760,131,2880,89.8C3000,49,3120,98,3240,130.7C3360,163,3480,180,3600,196C3720,212,3840,229,3960,261.3C4080,294,4200,343,4320,367.5C4440,392,4560,392,4680,359.3C4800,327,4920,261,5040,212.3C5160,163,5280,131,5400,98C5520,65,5640,33,5760,81.7C5880,131,6000,261,6120,269.5C6240,278,6360,163,6480,155.2C6600,147,6720,245,6840,285.8C6960,327,7080,310,7200,277.7C7320,245,7440,196,7560,187.8C7680,180,7800,212,7920,196C8040,180,8160,114,8280,98C8400,82,8520,114,8580,130.7L8640,147L8640,490L8580,490C8520,490,8400,490,8280,490C8160,490,8040,490,7920,490C7800,490,7680,490,7560,490C7440,490,7320,490,7200,490C7080,490,6960,490,6840,490C6720,490,6600,490,6480,490C6360,490,6240,490,6120,490C6000,490,5880,490,5760,490C5640,490,5520,490,5400,490C5280,490,5160,490,5040,490C4920,490,4800,490,4680,490C4560,490,4440,490,4320,490C4200,490,4080,490,3960,490C3840,490,3720,490,3600,490C3480,490,3360,490,3240,490C3120,490,3000,490,2880,490C2760,490,2640,490,2520,490C2400,490,2280,490,2160,490C2040,490,1920,490,1800,490C1680,490,1560,490,1440,490C1320,490,1200,490,1080,490C960,490,840,490,720,490C600,490,480,490,360,490C240,490,120,490,60,490L0,490Z"/></svg>